# AST/ASF file generated using VICON BodyLanguage
# -----------------------------------------------
:version 1.10
:name VICON
:units
  mass 1.0
  length 0.45
  angle deg
:documentation
   .ast/.asf automatically generated from VICON data using
   VICON BodyBuilder and BodyLanguage model FoxedUp or BRILLIANT.MOD
:root
   order TX TY TZ RX RY RZ
   axis XYZ
   position 0 0 0  
   orientation 0 0 0 
:bonedata
  begin
     id 1 
     name lhipjoint
     direction 0.621036 -0.695554 0.361275 
     length 2.46325 
     axis 0 0 0  XYZ
  end
  begin
     id 2 
     name lfemur
     direction 0.34202 -0.939693 0  
     length 6.54784  
     axis 0 0 20  XYZ
    dof rx ry rz
    limits (-160.0 20.0)
           (-70.0 70.0)
           (-60.0 70.0)
  end
  begin
     id 3 
     name ltibia
     direction 0.34202 -0.939693 0   
     length 7.84737   
     axis 0 0 20   XYZ
    dof rx
    limits (-10.0 170.0)
  end
  begin
     id 4 
     name lfoot
     direction 0.0790693 -0.217241 0.97291   
     length 2.59747   
     axis -90 7.62852e-016 20   XYZ
    dof rx rz
    limits (-45.0 90.0)
           (-70.0 20.0)
  end
  begin
     id 5 
     name ltoes
     direction 1.53572e-011 -4.21898e-011 1   
     length 1.29919   
     axis -90 7.62852e-016 20   XYZ
    dof rx
    limits (-90.0 20.0)
  end
  begin
     id 6 
     name rhipjoint
     direction -0.602353 -0.708375 0.367935   
     length 2.41867  
     axis 0 0 0  XYZ 
  end
  begin
     id 7 
     name rfemur
     direction -0.34202 -0.939693 0   
     length 6.92065   
     axis 0 0 -20   XYZ
    dof rx ry rz
    limits (-160.0 20.0)
           (-70.0 70.0)
           (-70.0 60.0)
  end
  begin
     id 8 
     name rtibia
     direction -0.34202 -0.939693 0   
     length 7.88883   
     axis 0 0 -20   XYZ
    dof rx
    limits (-10.0 170.0)
 end
 begin
     id 9 
     name rfoot
     direction -0.0768692 -0.211196 0.974416   
     length 2.43714  
     axis -90 -7.62852e-016 -20   XYZ
    dof rx rz
    limits (-45.0 90.0)
           (-20.0 70.0)
  end
  begin
     id 10 
     name rtoes
     direction -1.53575e-011 -4.21933e-011 1   
     length 1.22113   
     axis -90 -7.62852e-016 -20   XYZ
    dof rx
    limits (-90.0 20.0)
  end
  begin
     id 11 
     name lowerback
     direction 0.0197937 0.98943 -0.143655   
     length 2.16931   
     axis 0 0 0   XYZ
    dof rx ry rz
    limits (-20.0 45.0)
           (-30.0 30.0)
           (-30.0 30.0)
  end
  begin
     id 12 
     name upperback
     direction -0.00183968 0.999975 0.00684288   
     length 2.17221   
     axis 0 0 0   XYZ
    dof rx ry rz
    limits (-20.0 45.0)
           (-30.0 30.0)
           (-30.0 30.0)
  end
  begin
     id 13 
     name thorax
     direction -0.00950244 0.997208 0.0740685   
     length 2.22549   
     axis 0 0 0   XYZ
    dof rx ry rz
    limits (-20.0 45.0)
           (-30.0 30.0)
           (-30.0 30.0)
  end
  begin
     id 14 
     name lowerneck
     direction 0.0218238 0.996215 0.0841425   
     length 1.77269   
     axis 0 0 0   XYZ
    dof rx ry rz
    limits (-20.0 45.0)
           (-30.0 30.0)
           (-30.0 30.0)
  end
  begin
     id 15 
     name upperneck
     direction -0.00430652 0.994214 -0.107332   
     length 1.76534   
     axis 0 0 0   XYZ
    dof rx ry rz
    limits (-20.0 45.0)
           (-30.0 30.0)
           (-30.0 30.0)
  end
  begin
     id 16
     name head
     direction -0.00328946 0.998959 -0.0454998  
     length 1.82634  
     axis 0 0 0   XYZ
    dof rx ry rz
    limits (-20.0 45.0)
           (-30.0 30.0)
           (-30.0 30.0)
  end
  begin
     id 17 
     name lclavicle
     direction 0.970962 0.239191 0.00450212  
     length 3.84872  
     axis 0 0 0   XYZ
    dof ry rz
    limits (-20.0 10.0)
           (0.0 20.0)
  end
  begin
     id 18 
     name lhumerus
     direction 1 -4.48966e-011 5.74696e-028   
     length 5.22771   
     axis 180 -30 -90   XYZ
    dof rx ry rz
    limits (-60.0 90.0)
           (-90.0 90.0)
           (-90.0 90.0)
  end
  begin
     id 19
     name lradius
     direction 1 -4.4896e-011 4.25109e-027   
     length 3.45251   
     axis 180 -30 -90   XYZ
    dof rx
    limits (-10.0 170.0)
  end
  begin
     id 20
     name lwrist
     direction 1 -4.48971e-011 1.15382e-027   
     length 1.72626   
     axis -5.52449e-016 90 90   XYZ
    dof ry
    limits (-180.0 0.0)
 end
  begin
     id 21 
     name lhand
     direction 1 -4.49034e-011 2.30765e-027   
     length 0.552119   
     axis -1.47248e-015 90 90   XYZ
    dof rx rz
    limits (-90.0 90.0)
           (-45.0 45.0)
  end
  begin
     id 22 
     name lfingers
     direction 1 -4.48951e-011 4.61529e-027   
     length 0.445133   
     axis -2.94495e-015 90 90   XYZ
    dof rx
    limits (0.0 90.0)
  end
  begin
     id 23
     name lthumb
     direction 0.707107 -6.34991e-011 0.707107   
     length 0.639124   
     axis -90 45 2.85299e-015   XYZ
    dof rx rz
    limits (-45.0 45.0)
           (-45.0 45.0)
  end
  begin
     id 24 
     name rclavicle
     direction -0.97424 0.222511 -0.0366699   
     length 3.73439  
     axis 0 0 0   XYZ 
    dof ry rz
    limits (-10.0 20.0)
           (-20.0 0.0)
  end
  begin
     id 25 
     name rhumerus
     direction -1 -4.48956e-011 -4.97258e-028  
     length 5.2398   
     axis 180 30 90   XYZ
    dof rx ry rz
    limits (-90.0 60.0)
           (-90.0 90.0)
           (-90.0 90.0)
  end
  begin
     id 26 
     name rradius
     direction -1 -4.4897e-011 -1.72611e-027   
     length 3.48042   
     axis 180 30 90   XYZ
    dof rx
    limits (-10.0 170.0)
  end
  begin
     id 27 
     name rwrist
     direction -1 -4.48976e-011 1.15382e-027   
     length 1.74021   
     axis -5.52449e-016 -90 -90   XYZ
    dof ry
    limits (-180.0 0.0)
  end
  begin
     id 28
     name rhand
     direction -1 -4.48963e-011 2.30765e-027   
     length 0.618713   
     axis -1.47248e-015 -90 -90   XYZ
    dof rx rz
    limits (-90.0 90.0)
           (-45.0 45.0)
  end
  begin
     id 29
     name rfingers
     direction -1 -4.4888e-011 4.61529e-027   
     length 0.498823   
     axis -2.94495e-015 -90 -90   XYZ
    dof rx
    limits (0.0 90.0)
  end
  begin
     id 30
     name rthumb
     direction -0.707107 -6.34968e-011 0.707107   
     length 0.716213   
     axis -90 -45 -2.85299e-015   XYZ
    dof rx rz
    limits (-45.0 45.0)
           (-45.0 45.0)
  end
:hierarchy
  begin
    root lhipjoint rhipjoint lowerback
    lhipjoint lfemur
    lfemur ltibia
    ltibia lfoot
    lfoot ltoes
    rhipjoint rfemur
    rfemur rtibia
    rtibia rfoot
    rfoot rtoes
    lowerback upperback
    upperback thorax
    thorax lowerneck lclavicle rclavicle
    lowerneck upperneck
    upperneck head
    lclavicle lhumerus
    lhumerus lradius
    lradius lwrist
    lwrist lhand lthumb
    lhand lfingers
    rclavicle rhumerus
    rhumerus rradius
    rradius rwrist
    rwrist rhand rthumb
    rhand rfingers
  end

#!OML:ASF G:\JayActor3\Patient Classification 1\Patient 1\Session 5\male.ASF
:FULLY-SPECIFIED
:DEGREES
38
root -28.9491 16.9616 -5.34588 198.54 83.8352 196.891
lowerback 0.943102 -1.30909 2.71596
upperback 1.28725 -1.72358 0.888708
thorax 0.737512 -0.835719 -0.604973
lowerneck -7.67879 -1.57682 1.45458
upperneck 0.917587 -2.25594 1.6875
head 1.58684 -1.06335 0.199744
rclavicle 1.09083e-014 -1.0138e-014
rhumerus -38.0245 -18.0249 -78.083
rradius 20.8299
rwrist 11.2427
rhand -16.4877 -5.16622
rfingers 7.12502
rthumb 9.72967 -34.9215
lclavicle 1.09083e-014 -1.0138e-014
lhumerus -35.83 12.7823 80.6766
lradius 19.6752
lwrist 4.97061
lhand -14.9358 14.1843
lfingers 7.12502
lthumb 11.2266 43.8639
rfemur -25.2344 3.95394 25.7871
rtibia 35.2956
rfoot -18.3837 -15.0402
rtoes 5.07357
lfemur 12.4976 8.21066 -12.7583
ltibia 38.9425
lfoot 21.0252 3.31976
ltoes -10.4149
39
root -28.7915 16.9779 -5.33445 202.122 83.4191 200.692
lowerback 0.983785 -1.28231 3.28382
upperback 1.30069 -1.68153 1.02662
thorax 0.718239 -0.809108 -0.780224
lowerneck -7.64411 -1.67921 1.39823
upperneck 1.03243 -2.3925 1.76387
head 1.61998 -1.12919 0.227902
rclavicle 1.30452e-014 -6.75868e-015
rhumerus -37.6861 -17.4681 -78.5509
rradius 21.2762
rwrist 10.6924
rhand -16.7313 -5.20302
rfingers 7.12502
rthumb 9.49465 -34.9691
lclavicle 1.30452e-014 -6.75868e-015
lhumerus -35.9914 12.3144 80.6466
lradius 19.9315
lwrist 5.03542
lhand -14.9933 14.1468
lfingers 7.12502
lthumb 11.1712 43.8294
rfemur -24.0632 3.62473 26.5313
rtibia 34.7442
rfoot -18.7203 -14.8369
rtoes 5.36484
lfemur 10.8343 7.86413 -11.9875
ltibia 41.9405
lfoot 21.2496 3.58893
ltoes -10.0928
40
root -28.6368 16.9924 -5.32389 204.873 83.0093 203.643
lowerback 1.01622 -1.24757 3.79732
upperback 1.31478 -1.62886 1.14644
thorax 0.706379 -0.777447 -0.94378
lowerneck -7.60339 -1.7863 1.33654
upperneck 1.12374 -2.53434 1.84924
head 1.64487 -1.19765 0.259747
rclavicle 1.07344e-014 -1.15295e-014
rhumerus -37.3379 -16.8633 -79.0276
rradius 21.7705
rwrist 10.0892
rhand -16.9637 -5.26166
rfingers 7.12502
rthumb 9.27036 -35.0379
lclavicle 1.07344e-014 -1.15295e-014
lhumerus -36.1245 11.8407 80.6385
lradius 20.2336
lwrist 5.18417
lhand -15.0995 14.0994
lfingers 7.12502
lthumb 11.0688 43.7875
rfemur -22.9389 3.29917 27.1995
rtibia 34.2035
rfoot -19.0354 -14.6206
rtoes 5.68179
lfemur 9.1811 7.49828 -11.3264
ltibia 44.7578
lfoot 20.9589 3.71721
ltoes -10.2661
41
root -28.4847 17.0052 -5.31415 206.809 82.6265 205.767
lowerback 1.04873 -1.20598 4.23269
upperback 1.33297 -1.56733 1.24434
thorax 0.701298 -0.74182 -1.0862
lowerneck -7.55771 -1.89946 1.26719
upperneck 1.19499 -2.68324 1.94259
head 1.66288 -1.26965 0.295279
rclavicle -1.82012e-014 1.39149e-014
rhumerus -36.9785 -16.2318 -79.4961
rradius 22.2889
rwrist 9.47224
rhand -17.1985 -5.30083
rfingers 7.12502
rthumb 9.04384 -35.087
lclavicle -1.82012e-014 1.39149e-014
lhumerus -36.2337 11.3753 80.6484
lradius 20.5822
lwrist 5.42096
lhand -15.2527 14.0483
lfingers 7.12502
lthumb 10.921 43.7443
rfemur -21.8546 2.9738 27.772
rtibia 33.6859
rfoot -19.3328 -14.396
rtoes 5.98293
lfemur 7.54462 7.10729 -10.7959
ltibia 47.3867
lfoot 20.2299 3.65319
ltoes -10.7728
42
root -28.3351 17.017 -5.30477 208.091 82.2823 207.231
lowerback 1.07938 -1.15588 4.58543
upperback 1.3618 -1.49531 1.31996
thorax 0.710935 -0.701227 -1.20556
lowerneck -7.51601 -2.0152 1.19198
upperneck 1.24653 -2.83493 2.04796
head 1.67582 -1.34286 0.335537
rclavicle 1.22625e-014 2.18663e-015
rhumerus -36.5974 -15.5782 -79.9595
rradius 22.8145
rwrist 8.85703
rhand -17.4536 -5.31561
rfingers 7.12502
rthumb 8.79764 -35.1122
lclavicle 1.22625e-014 2.18663e-015
lhumerus -36.3131 10.9259 80.6709
lradius 20.9777
lwrist 5.7399
lhand -15.4425 14.0086
lfingers 7.12502
lthumb 10.738 43.7142
rfemur -20.8068 2.66464 28.2522
rtibia 33.1938
rfoot -19.6207 -14.1804
rtoes 6.2374
lfemur 5.92033 6.68975 -10.389
ltibia 49.8193
lfoot 19.1872 3.37017
ltoes -11.3235
43
root -28.1876 17.0281 -5.29559 208.867 81.9914 208.184
lowerback 1.11237 -1.09544 4.85461
upperback 1.40275 -1.41045 1.37406
thorax 0.734526 -0.654472 -1.30057
lowerneck -7.47937 -2.13243 1.10919
upperneck 1.27938 -2.98786 2.1668
head 1.68431 -1.41648 0.381316
rclavicle -2.15184e-014 2.66371e-014
rhumerus -36.1846 -14.9145 -80.4122
rradius 23.3345
rwrist 8.25095
rhand -17.7061 -5.32987
rfingers 7.12502
rthumb 8.55397 -35.1366
lclavicle -2.15184e-014 2.66371e-014
lhumerus -36.3637 10.5169 80.6909
lradius 21.4108
lwrist 6.13441
lhand -15.6361 13.9461
lfingers 7.12502
lthumb 10.5512 43.6612
rfemur -19.7891 2.37542 28.6445
rtibia 32.7268
rfoot -19.9044 -13.9679
rtoes 6.45383
lfemur 4.30631 6.24635 -10.1034
ltibia 52.0468
lfoot 18.0134 2.95174
ltoes -11.7923
44
root -28.0424 17.0383 -5.2864 209.353 81.7581 208.837
lowerback 1.14727 -1.02336 5.0553
upperback 1.45066 -1.31086 1.41174
thorax 0.766824 -0.600674 -1.37436
lowerneck -7.45003 -2.24821 1.02517
upperneck 1.29892 -3.13861 2.28952
head 1.69024 -1.48895 0.42861
rclavicle 8.3738e-015 2.68359e-014
rhumerus -35.7431 -14.2339 -80.8548
rradius 23.8453
rwrist 7.65777
rhand -17.9558 -5.35497
rfingers 7.12502
rthumb 8.31298 -35.1714
lclavicle 8.3738e-015 2.68359e-014
lhumerus -36.393 10.1584 80.7021
lradius 21.8782
lwrist 6.58365
lhand -15.8298 13.8897
lfingers 7.12502
lthumb 10.3644 43.6143
rfemur -18.8079 2.11922 28.9691
rtibia 32.2849
rfoot -20.1856 -13.7592
rtoes 6.63199
lfemur 2.6956 5.78399 -9.92063
ltibia 54.0664
lfoot 16.7588 2.49925
ltoes -12.0546
